# xmcd
#
# Track frame offsets: 
#        150
#        11747
#        23902
#        37152
#        53852
#        70135
#        77980
#        98027
#        113790
#        123970
#        139520
#
# Disc length: 2088 seconds
#
# Revision: 5
# Processed by: cddbd v1.5.2PL0 Copyright (c) Steve Scherf et al.
# Submitted via: ExactAudioCopyFreeDBPlugin 1.0
#
DISCID=9008260b
DTITLE=Professor Washboard and The Catfish - Blackjack
DYEAR=1992
DGENRE=Blues
TTITLE0=Freight Train
TTITLE1=The Stuff You Gotta Watch
TTITLE2=I'll Make A Deal With You
TTITLE3=Ask Me Nice
TTITLE4=Mean Mistreater
TTITLE5=Catfish Stroll
TTITLE6=The Doors Are All Open
TTITLE7=Broke Down Engine
TTITLE8=I Wouldn't Live Without You
TTITLE9=Call My Job
TTITLE10=Roll And Tumble
EXTD=Recorded at ROCKING CHAIR STUDIOS Memphis Tenn. Feb. 1992\n\nMusi
EXTD=cians:\nProffessor Washboard - Washboard and Dadburn Contraption,
EXTD=\nHugh Pool - Guitars - Vocals - Harmonica, Dwayne Thomas - Bass
EXTD=,\nButch Mudbone - Guitar on Mean Mistreater, Ask Me Nice and Cal
EXTD=l My Job\n\nProduced by HUGH POOL and PROFFESSOR WASHBOARD  c 199
EXTD=2\n\nMarc.Amos@Nagold.netsurf.de
EXTT0=
EXTT1=
EXTT2=
EXTT3=
EXTT4=
EXTT5=
EXTT6=
EXTT7=
EXTT8=
EXTT9=
EXTT10=
PLAYORDER=
